<?xml version="1.0" encoding="iso-8859-1"?>
<!-- Uploaded to: SVG Repo, www.svgrepo.com, Generator: SVG Repo Mixer Tools -->
<svg height="800px" width="800px" version="1.1" id="Layer_1" xmlns="http://www.w3.org/2000/svg" xmlns:xlink="http://www.w3.org/1999/xlink" 
	 viewBox="0 0 512 512" xml:space="preserve">
<circle style="fill:#ece0d0;" cx="256" cy="256" r="256"/>
<g>
	<path style="fill:#ffffff;" d="M322.975,181.851l-53.441-67.722c-3.268-4.143-8.256-6.561-13.533-6.561s-10.264,2.417-13.533,6.561
		l-53.441,67.722c-4.093,5.186-4.861,12.254-1.979,18.199c2.882,5.946,8.907,9.719,15.513,9.719h36.202v188.452h34.478V209.77
		h36.202c6.606,0,12.631-3.774,15.513-9.719C327.84,194.105,327.068,187.037,322.975,181.851z"/>
</g>
<path style="fill:#ffffff;" d="M322.975,181.851l-53.441-67.722c-3.268-4.143-8.256-6.561-13.533-6.561
	c-0.193,0-0.383,0.026-0.574,0.033v290.621h17.813V209.77h36.202c6.606,0,12.631-3.774,15.513-9.719
	C327.839,194.105,327.068,187.037,322.975,181.851z"/>
</svg>